<?xml version="1.0" encoding="UTF-8" standalone="no"?>
<svg
   xmlns:dc="http://purl.org/dc/elements/1.1/"
   xmlns:cc="http://creativecommons.org/ns#"
   xmlns:rdf="http://www.w3.org/1999/02/22-rdf-syntax-ns#"
   xmlns:svg="http://www.w3.org/2000/svg"
   xmlns="http://www.w3.org/2000/svg"
   xmlns:sodipodi="http://sodipodi.sourceforge.net/DTD/sodipodi-0.dtd"
   xmlns:inkscape="http://www.inkscape.org/namespaces/inkscape"
   version="1.1"
   width="76"
   height="76"
   viewBox="0 0 76.00 76.00"
   enable-background="new 0 0 76.00 76.00"
   xml:space="preserve"
   id="svg2"
   inkscape:version="0.48.4 r9939"
   sodipodi:docname="appbar.save.svg"><metadata
   id="metadata10"><rdf:RDF><cc:Work
       rdf:about=""><dc:format>image/svg+xml</dc:format><dc:type
         rdf:resource="http://purl.org/dc/dcmitype/StillImage" /><dc:title></dc:title></cc:Work></rdf:RDF></metadata><defs
   id="defs8" /><sodipodi:namedview
   pagecolor="#ffffff"
   bordercolor="#666666"
   borderopacity="1"
   objecttolerance="10"
   gridtolerance="10"
   guidetolerance="10"
   inkscape:pageopacity="0"
   inkscape:pageshadow="2"
   inkscape:window-width="1420"
   inkscape:window-height="1004"
   id="namedview6"
   showgrid="false"
   inkscape:zoom="3.1052632"
   inkscape:cx="9.7557675"
   inkscape:cy="-14.771337"
   inkscape:window-x="467"
   inkscape:window-y="341"
   inkscape:window-maximized="0"
   inkscape:current-layer="svg2" />
	<path
   fill="#000000"
   fill-opacity="1"
   stroke-width="0.2"
   stroke-linejoin="round"
   d="M 20.5833,20.5833L 55.4167,20.5833L 55.4167,55.4167L 45.9167,55.4167L 45.9167,44.3333L 30.0833,44.3333L 30.0833,55.4167L 20.5833,55.4167L 20.5833,20.5833 Z M 33.25,55.4167L 33.25,50.6667L 39.5833,50.6667L 39.5833,55.4167L 33.25,55.4167 Z M 26.9167,23.75L 26.9167,33.25L 49.0833,33.25L 49.0833,23.75L 26.9167,23.75 Z "
   id="path4" />
<path
   style="fill:#000000;fill-opacity:1;stroke-width:0.20000000000000001;stroke-linejoin:round"
   d="m 57.805085,21.8983 c 8.981639,0 16.262712,7.353163 16.262712,16.423729 0,4.535283 -1.820225,8.641215 -4.763263,11.613305 l 4.763263,4.810424 -12.838983,0 0,-12.966102 4.444342,4.488346 c 2.013581,-2.033517 3.259048,-4.842839 3.259048,-7.945973 0,-6.206181 -4.981782,-11.237288 -11.127119,-11.237288"
   id="path4-1" /></svg>