<?xml version="1.0" encoding="UTF-8" standalone="no"?>
<svg
   xmlns:dc="http://purl.org/dc/elements/1.1/"
   xmlns:cc="http://creativecommons.org/ns#"
   xmlns:rdf="http://www.w3.org/1999/02/22-rdf-syntax-ns#"
   xmlns:svg="http://www.w3.org/2000/svg"
   xmlns="http://www.w3.org/2000/svg"
   xmlns:sodipodi="http://sodipodi.sourceforge.net/DTD/sodipodi-0.dtd"
   xmlns:inkscape="http://www.inkscape.org/namespaces/inkscape"
   version="1.1"
   width="76"
   height="76"
   viewBox="0 0 76.00 76.00"
   enable-background="new 0 0 76.00 76.00"
   xml:space="preserve"
   id="svg2"
   inkscape:version="0.48.4 r9939"
   sodipodi:docname="appbar.save.svg"
   inkscape:export-filename="\\MACALLAN\Main\RobDev\Projects\HomeAutomation\ScanningAndFiling\ScanMonitor\ScanMonitorApp\ScanMonitorApp\res\appbar.save.png"
   inkscape:export-xdpi="196.36327"
   inkscape:export-ydpi="196.36327"><metadata
   id="metadata10"><rdf:RDF><cc:Work
       rdf:about=""><dc:format>image/svg+xml</dc:format><dc:type
         rdf:resource="http://purl.org/dc/dcmitype/StillImage" /><dc:title></dc:title></cc:Work></rdf:RDF></metadata><defs
   id="defs8" /><sodipodi:namedview
   pagecolor="#ffffff"
   bordercolor="#666666"
   borderopacity="1"
   objecttolerance="10"
   gridtolerance="10"
   guidetolerance="10"
   inkscape:pageopacity="0"
   inkscape:pageshadow="2"
   inkscape:window-width="2560"
   inkscape:window-height="1538"
   id="namedview6"
   showgrid="false"
   inkscape:zoom="1.5526316"
   inkscape:cx="-436.8787"
   inkscape:cy="3.9357801"
   inkscape:window-x="-8"
   inkscape:window-y="-8"
   inkscape:window-maximized="1"
   inkscape:current-layer="svg2" />
	<path
   d="m 13.218369,14.02463 34.8334,0 0,34.8334 -9.5,0 0,-11.0834 -15.8334,0 0,11.0834 -9.5,0 0,-34.8334 z m 12.6667,34.8334 0,-4.75 6.3333,0 0,4.75 -6.3333,0 z m -6.3333,-31.6667 0,9.5 22.1666,0 0,-9.5 -22.1666,0 z"
   id="path4-7"
   inkscape:connector-curvature="0"
   style="fill:#000000;fill-opacity:1;stroke-width:0.2;stroke-linejoin:round" /><rect
   style="fill:#ffffff;fill-opacity:1;stroke:none"
   id="rect3005-4"
   width="37.117115"
   height="37.401752"
   x="18.901804"
   y="19.099041"
   rx="0"
   ry="0" /><path
   d="m 20.901982,20.658087 34.8334,0 0,34.8334 -9.5,0 0,-11.0834 -15.8334,0 0,11.0834 -9.5,0 0,-34.8334 z m 12.6667,34.8334 0,-4.75 6.3333,0 0,4.75 -6.3333,0 z m -6.3333,-31.6667 0,9.5 22.1666,0 0,-9.5 -22.1666,0 z"
   id="path4"
   inkscape:connector-curvature="0"
   style="fill:#000000;fill-opacity:1;stroke-width:0.2;stroke-linejoin:round" />
<rect
   style="fill:#ffffff;fill-opacity:1;stroke:none"
   id="rect3005"
   width="37.117115"
   height="37.401752"
   x="26.585417"
   y="25.732498"
   rx="0"
   ry="0" /><path
   style="fill:#000000;fill-opacity:1;stroke-width:0.2;stroke-linejoin:round"
   inkscape:connector-curvature="0"
   d="m 28.410411,27.272851 34.8334,0 0,34.8334 -9.5,0 0,-11.0834 -15.8334,0 0,11.0834 -9.5,0 0,-34.8334 z m 12.6667,34.8334 0,-4.75 6.3333,0 0,4.75 -6.3333,0 z m -6.3333,-31.6667 0,9.5 22.1666,0 0,-9.5 -22.1666,0 z"
   id="path4-1" /></svg>