<?xml version="1.0" encoding="UTF-8" standalone="no"?>
<svg
   xmlns:dc="http://purl.org/dc/elements/1.1/"
   xmlns:cc="http://creativecommons.org/ns#"
   xmlns:rdf="http://www.w3.org/1999/02/22-rdf-syntax-ns#"
   xmlns:svg="http://www.w3.org/2000/svg"
   xmlns="http://www.w3.org/2000/svg"
   xmlns:sodipodi="http://sodipodi.sourceforge.net/DTD/sodipodi-0.dtd"
   xmlns:inkscape="http://www.inkscape.org/namespaces/inkscape"
   version="1.1"
   width="76"
   height="76"
   viewBox="0 0 76.00 76.00"
   enable-background="new 0 0 76.00 76.00"
   xml:space="preserve"
   id="svg2"
   inkscape:version="0.48.4 r9939"
   sodipodi:docname="appbar.folder.open.svg"
   inkscape:export-filename="\\MACALLAN\Main\RobDev\Projects\HomeAutomation\ScanningAndFiling\ScanMonitor\ScanMonitorApp\ScanMonitorApp\res\appbar.folder.open.png"
   inkscape:export-xdpi="263.07693"
   inkscape:export-ydpi="263.07693"><metadata
   id="metadata10"><rdf:RDF><cc:Work
       rdf:about=""><dc:format>image/svg+xml</dc:format><dc:type
         rdf:resource="http://purl.org/dc/dcmitype/StillImage" /><dc:title></dc:title></cc:Work></rdf:RDF></metadata><defs
   id="defs8" /><sodipodi:namedview
   pagecolor="#ffffff"
   bordercolor="#666666"
   borderopacity="1"
   objecttolerance="10"
   gridtolerance="10"
   guidetolerance="10"
   inkscape:pageopacity="0"
   inkscape:pageshadow="2"
   inkscape:window-width="2560"
   inkscape:window-height="1538"
   id="namedview6"
   showgrid="false"
   inkscape:zoom="1.5526316"
   inkscape:cx="-243.84645"
   inkscape:cy="43.64172"
   inkscape:window-x="-8"
   inkscape:window-y="-8"
   inkscape:window-maximized="1"
   inkscape:current-layer="svg2" />
	<path
   style="fill:#000000;fill-opacity:1;stroke-width:0.2;stroke-linejoin:round"
   d="M 48.861229,34 54.25,34"
   id="path3770" /><path
   style="fill:#000000;fill-opacity:1;stroke-width:0.2;stroke-linejoin:round"
   d="M 54.169491,33.979873 63,34 c -0.629366,1.123576 -1.336638,2.377382 -1.926907,3.409957 l -6.922669,0.01373"
   id="path3768"
   inkscape:connector-curvature="0"
   sodipodi:nodetypes="cccc" /><path
   style="fill:#000000;fill-opacity:1;stroke-width:0.2;stroke-linejoin:round"
   d="M 56.149364,46.080508 55.125,48 54,50 54.03284,46.095339"
   id="path3774"
   inkscape:connector-curvature="0"
   sodipodi:nodetypes="cccc" /><path
   style="fill:#000000;fill-opacity:1;stroke-width:0.2;stroke-linejoin:round"
   d="M 44.485169,46.216102 44.508474,50 42.680084,50 41.777542,50 40.875,50 36.5,50 32.125,50 27.75,50 23.375,50 19,50 l 9,-16 8.75,0 7.767744,0.04025 -0.0013,3.42161 -5.294757,-0.04025 0.0188,8.795551"
   id="path3764"
   inkscape:connector-curvature="0"
   sodipodi:nodetypes="cccccccccccccccc" /><path
   style="fill:#000000;fill-opacity:1;stroke-width:0.2;stroke-linejoin:round"
   d="M 19,28.0001 35,28 c 1,-3 2.4999,-3.9999 2.4999,-3.9999 L 48.75,24 c 0.5523,0 1.25,0.6977 1.25,1.25 l 0,2.75 3.9999,10e-5 0,3.9999 L 27,32 19,46.4 z"
   id="path4" />
<path
   inkscape:connector-curvature="0"
   d="m 41.09686,44.004979 0,-5 6,0 0,-6 5,0 0,6 6,0 0,5 -6,0 0,6 -5,0 0,-6 -6,0 z"
   id="path2991"
   style="fill:#000000;fill-opacity:1" /></svg>