<?xml version="1.0" encoding="UTF-8" standalone="no"?>
<!-- Generator: Adobe Illustrator 16.0.4, SVG Export Plug-In . SVG Version: 6.00 Build 0)  -->

<svg
   xmlns:dc="http://purl.org/dc/elements/1.1/"
   xmlns:cc="http://creativecommons.org/ns#"
   xmlns:rdf="http://www.w3.org/1999/02/22-rdf-syntax-ns#"
   xmlns:svg="http://www.w3.org/2000/svg"
   xmlns="http://www.w3.org/2000/svg"
   xmlns:sodipodi="http://sodipodi.sourceforge.net/DTD/sodipodi-0.dtd"
   xmlns:inkscape="http://www.inkscape.org/namespaces/inkscape"
   version="1.1"
   id="Capa_1"
   x="0px"
   y="0px"
   width="13.599px"
   height="21.404px"
   viewBox="0 0 13.599 21.404"
   style="enable-background:new 0 0 13.599 21.404;"
   xml:space="preserve"
   inkscape:version="0.48.4 r9939"
   sodipodi:docname="Flaticon_8574 (1).svg"><metadata
   id="metadata45"><rdf:RDF><cc:Work
       rdf:about=""><dc:format>image/svg+xml</dc:format><dc:type
         rdf:resource="http://purl.org/dc/dcmitype/StillImage" /><dc:title></dc:title></cc:Work></rdf:RDF></metadata><defs
   id="defs43" /><sodipodi:namedview
   pagecolor="#ffffff"
   bordercolor="#666666"
   borderopacity="1"
   objecttolerance="10"
   gridtolerance="10"
   guidetolerance="10"
   inkscape:pageopacity="0"
   inkscape:pageshadow="2"
   inkscape:window-width="910"
   inkscape:window-height="789"
   id="namedview41"
   showgrid="false"
   inkscape:zoom="11.025977"
   inkscape:cx="6.7995"
   inkscape:cy="10.702"
   inkscape:window-x="0"
   inkscape:window-y="0"
   inkscape:window-maximized="0"
   inkscape:current-layer="Capa_1" />
<g
   id="g3"
   transform="matrix(-1,0,0,-1,13.599188,21.404914)">
	<circle
   style="fill:#231f20"
   cx="6.8169999"
   cy="10.752"
   r="0.25600001"
   id="circle5"
   d="m 7.0729999,10.752 c 0,0.141385 -0.1146151,0.256 -0.256,0.256 -0.1413849,0 -0.256,-0.114615 -0.256,-0.256 0,-0.141385 0.1146151,-0.256 0.256,-0.256 0.1413849,0 0.256,0.114615 0.256,0.256 z"
   sodipodi:cx="6.8169999"
   sodipodi:cy="10.752"
   sodipodi:rx="0.25600001"
   sodipodi:ry="0.25600001" />
	<path
   style="fill:#231f20"
   d="M 1.024,17.932 C 1.387,16.828 2.386,16.16 3.25,16.445 4.115,16.729 4.522,17.859 4.159,18.964 3.796,20.069 2.797,20.736 1.933,20.451 1.581,20.337 1.297,20.08 1.11,19.709 0.852,19.197 0.821,18.55 1.024,17.932 l 0,0 z M 7.918,10.824 C 8.243,10.035 9.846,6.221 10.587,3.552 11.431,0.511 11.259,0.029 10.991,0 L 5.715,10.824 c -1.094,2.341 -0.626,2.484 -1.768,3.422 -0.725,0.597 -1.775,1.165 -2.303,1.573 -0.65,0.364 -1.195,1.008 -1.467,1.834 -0.277,0.841 -0.227,1.737 0.137,2.457 0.291,0.577 0.768,0.999 1.34,1.188 1.331,0.437 2.731,-0.522 3.351,-2.056 0.396,-0.98 0.154,-3.679 0.41,-4.632 0.172,-0.644 0.82,-1.455 1.401,-2.143 0.395,-0.429 0.777,-0.854 1.102,-1.643 z"
   id="path7"
   inkscape:connector-curvature="0" />
	<path
   style="fill:#231f20"
   d="m 12.489,19.708 c -0.187,0.371 -0.471,0.628 -0.823,0.742 -0.864,0.284 -1.862,-0.383 -2.227,-1.487 -0.363,-1.104 0.045,-2.234 0.909,-2.519 0.864,-0.285 1.863,0.383 2.227,1.487 0.204,0.619 0.173,1.266 -0.086,1.777 l 0,0 z m -5.706,-7.24 c 0.581,0.688 1.229,1.499 1.401,2.143 0.255,0.953 0.013,3.651 0.409,4.631 0.62,1.534 2.021,2.494 3.352,2.057 0.572,-0.188 1.049,-0.61 1.34,-1.188 0.364,-0.721 0.414,-1.616 0.138,-2.457 C 13.151,16.828 12.606,16.184 11.957,15.82 11.429,15.412 10.378,14.843 9.653,14.247 8.511,13.309 8.979,13.166 7.885,10.825 L 2.608,0 C 2.34,0.029 2.169,0.511 3.012,3.552 c 0.741,2.67 2.344,6.483 2.669,7.272 0.325,0.789 0.707,1.214 1.102,1.644 z"
   id="path9"
   inkscape:connector-curvature="0" />
</g>
<g
   id="g11">
</g>
<g
   id="g13">
</g>
<g
   id="g15">
</g>
<g
   id="g17">
</g>
<g
   id="g19">
</g>
<g
   id="g21">
</g>
<g
   id="g23">
</g>
<g
   id="g25">
</g>
<g
   id="g27">
</g>
<g
   id="g29">
</g>
<g
   id="g31">
</g>
<g
   id="g33">
</g>
<g
   id="g35">
</g>
<g
   id="g37">
</g>
<g
   id="g39">
</g>
</svg>